<svg width="680" height="280" viewBox="0 0 680 280" role="img" xmlns="http://www.w3.org/2000/svg">
  <title>Plevoid logo</title>

  <style>
    .wordmark { font-family: -apple-system, BlinkMacSystemFont, "Segoe UI", sans-serif; font-size: 52px; font-weight: 500; fill: #1a1a1a; letter-spacing: -1px; }
    .tagline { font-family: -apple-system, BlinkMacSystemFont, "Segoe UI", sans-serif; font-size: 12px; font-weight: 400; fill: #888888; letter-spacing: 3.5px; }
  </style>

  <g transform="translate(0, 130)">
    <rect x="136" y="-8"   width="10" height="16"  rx="5" fill="#1a1a1a" opacity="0.3"/>
    <rect x="150" y="-16"  width="10" height="32"  rx="5" fill="#1a1a1a" opacity="0.45"/>
    <rect x="164" y="-28"  width="10" height="56"  rx="5" fill="#1a1a1a" opacity="0.6"/>
    <rect x="178" y="-44"  width="10" height="88"  rx="5" fill="#1a1a1a" opacity="0.75"/>
    <rect x="192" y="-58"  width="10" height="116" rx="5" fill="#1a1a1a" opacity="0.85"/>
    <rect x="206" y="-68"  width="10" height="136" rx="5" fill="#1a1a1a"/>
  </g>

  <text x="340" y="158" text-anchor="middle" class="wordmark">plevoid</text>

  <g transform="translate(0, 130)">
    <rect x="464" y="-68"  width="10" height="136" rx="5" fill="#1a1a1a"/>
    <rect x="478" y="-58"  width="10" height="116" rx="5" fill="#1a1a1a" opacity="0.85"/>
    <rect x="492" y="-44"  width="10" height="88"  rx="5" fill="#1a1a1a" opacity="0.75"/>
    <rect x="506" y="-28"  width="10" height="56"  rx="5" fill="#1a1a1a" opacity="0.6"/>
    <rect x="520" y="-16"  width="10" height="32"  rx="5" fill="#1a1a1a" opacity="0.45"/>
    <rect x="534" y="-8"   width="10" height="16"  rx="5" fill="#1a1a1a" opacity="0.3"/>
  </g>

  <text x="340" y="202" text-anchor="middle" class="tagline">anonymous playlists</text>
</svg>
